<?xml version="1.0" encoding="utf-8"?>
<!-- Generator: Adobe Illustrator 19.2.1, SVG Export Plug-In . SVG Version: 6.00 Build 0)  -->
<svg version="1.1" id="Layer_1" xmlns="http://www.w3.org/2000/svg" xmlns:xlink="http://www.w3.org/1999/xlink" x="0px" y="0px"
	 viewBox="0 0 308 86.5" style="enable-background:new 0 0 308 86.5;" xml:space="preserve">
<g id="XMLID_71_">
	<path id="XMLID_92_" d="M174.1,34.2c-5.7,0-10.3,4.1-10.3,10.6c0,6.9,4.3,10.9,10.3,10.9c3.1,0,5.9-0.9,8.5-2.7l-2.3-3.6
		c-1.7,1.1-3.6,1.8-5.7,1.8c-2.8,0-4.5-1.5-4.9-4.4h13.2c0.2-0.9,0.4-1.8,0.4-3.3C183.2,38.1,180,34.2,174.1,34.2 M174.2,38.2
		c2.7,0,3.7,2,3.7,4.6h-8.3C170.1,39.9,171.9,38.2,174.2,38.2"/>
	<path id="XMLID_89_" d="M258.3,34.2c-5.7,0-10.3,4.1-10.3,10.6c0,6.9,4.3,10.9,10.3,10.9c3.1,0,5.9-0.9,8.5-2.7l-2.3-3.6
		c-1.7,1.1-3.6,1.8-5.7,1.8c-2.8,0-4.5-1.5-4.9-4.4h13.2c0.2-0.9,0.4-1.8,0.4-3.3C267.5,38.1,264.2,34.2,258.3,34.2 M258.5,38.2
		c2.7,0,3.7,2,3.7,4.6h-8.3C254.4,39.9,256.2,38.2,258.5,38.2"/>
	<path id="XMLID_86_" d="M279.8,34.2c-5.7,0-10.3,4.1-10.3,10.6c0,6.9,4.3,10.9,10.3,10.9c3.1,0,5.9-0.9,8.5-2.7l-2.3-3.6
		c-1.7,1.1-3.6,1.8-5.7,1.8c-2.8,0-4.5-1.5-4.9-4.4h13.2c0.2-0.9,0.4-1.8,0.4-3.3C288.9,38.1,285.7,34.2,279.8,34.2 M279.9,38.2
		c2.7,0,3.7,2,3.7,4.6h-8.3C275.8,39.9,277.6,38.2,279.9,38.2"/>
	<path id="XMLID_85_" d="M205.2,39.4c-2.9-0.7-5.5-1.4-5.5-3.6c0-1.8,1.7-3,4.3-3c2.4,0,4.9,0.6,7.2,1.7l2-4.3
		c-3.2-1.5-6.3-2.2-9.5-2.2c-5.8,0-9.8,3.2-9.8,7.9c0,5.9,4.8,7.1,9.1,8.3c3,0.8,5.6,1.4,5.6,3.7c0,2-1.7,3.1-4.6,3.1
		c-2.5,0-5.3-0.8-7.9-2.4l-2.6,4.3c2.9,1.7,7,2.9,10.6,2.9c6.3,0,10.3-3,10.3-8C214.3,41.7,209.3,40.4,205.2,39.4"/>
	<path id="XMLID_82_" d="M131.4,42.9v-1.8c0-1.5-0.9-2.4-2.8-2.4c-2,0-4,0.8-6.5,2l-2-4.1c2.8-1.4,6-2.3,8.8-2.3
		c5.9,0,8.2,2.9,8.2,7.1v8.6c0,1.1,0.7,1.6,1.7,1.6v3.9c-3.9,0-5.5-0.6-6.6-2.5c-1.7,1.8-3.6,2.9-6.4,2.9c-3.6,0-6.1-2.2-6.1-5.4
		C119.5,45.8,123.7,43.4,131.4,42.9 M127.5,51.7c1.7,0,3-0.7,3.9-1.7V46c-3.2,0.2-6.3,1-6.3,3.6C125.1,50.8,126,51.7,127.5,51.7"/>
	<path id="XMLID_81_" d="M142.1,34.7h5.3l0.3,2.4c1.5-1.6,3.7-2.9,6.2-2.9c4.6,0,6.5,2.8,6.5,7.5v13.6h-5.6V41.5
		c0-1.8-0.8-3.1-2.7-3.1c-1.7,0-3.2,0.9-4.4,2.4v14.4h-5.6V34.7z"/>
	<path id="XMLID_80_" d="M218.9,38.7h-3.3v-4h3.3v-5.1h5.6v5.1h4.6v4h-4.6v10.2c0,1.5,0.6,2.3,1.9,2.3c1,0,2-0.3,2.8-0.9l2.1,3.4
		c-1.6,1.2-3.7,2.1-6,2.1c-4.3,0-6.3-2.1-6.3-6.7V38.7z"/>
	<path id="XMLID_79_" d="M233.8,34.7h5.2l0.4,3.2c1.6-2.8,3.5-3.7,5.9-3.7c1,0,1.8,0.2,2.5,0.4l-0.8,5.1c-0.7-0.3-1.6-0.5-2.8-0.5
		c-2.1,0-3.5,1.3-4.8,3.7v12.4h-5.6V34.7z"/>
	<path id="XMLID_78_" d="M293.8,38.7h-3.3v-4h3.3v-5.1h5.6v5.1h4.6v4h-4.6v10.2c0,1.5,0.6,2.3,1.9,2.3c1,0,2-0.3,2.8-0.9l2.1,3.4
		c-1.6,1.2-3.7,2.1-6,2.1c-4.3,0-6.3-2.1-6.3-6.7V38.7z"/>
	<g id="XMLID_72_">
		<path id="XMLID_77_" d="M109.8,28.5v17.8c0,2.8-1.3,4.3-3.7,4.3c-1.6,0-2.8-0.8-3.8-2.1L98.6,52c2,2.4,4.7,3.7,7.9,3.7
			c5.6,0,9.1-3.2,9.1-9.3V28.5H109.8z"/>
		<path id="XMLID_73_" d="M17.4,59.2l4-2.1c0.2-0.1,0.5,0,0.6,0.2C26.6,65,35,70.1,44.5,70.1c14.4,0,26.1-11.8,26-26.2
			c0-14.4-11.8-26.1-26.2-26c-14.4,0-26.1,11.8-26,26.2c0,1.7,0.2,3.3,0.5,4.9h0c0.1,0.3-0.1,0.5-0.4,0.6L14,50.6
			c-0.2,0.1-0.5-0.1-0.6-0.3c-0.4-2-0.6-4.1-0.6-6.2c0-17.4,14.1-31.7,31.5-31.7C61.8,12.3,76,26.4,76,43.9
			c0,17.4-14.1,31.7-31.5,31.7c-11.7,0-21.9-6.3-27.4-15.7C17,59.7,17.1,59.4,17.4,59.2 M61.1,50.8l4,2.2c0.2,0.1,0.6,0,0.7-0.2
			c1.1-2.7,1.7-5.6,1.8-8.6C67.6,31.4,57.3,21,44.6,20.9l-0.2,0c-12.6,0-22.9,10.3-23.1,22.9C21.3,56.5,31.5,66.9,44.2,67l0.2,0
			c6,0,11.5-2.3,15.6-6.2c0.2-0.2,0.2-0.5,0.1-0.7l-3.4-3.1c-0.2-0.2-0.5-0.1-0.7,0l0,0c-3.1,2.7-7.2,4.4-11.6,4.4l-0.1,0
			c-9.7-0.1-17.5-8-17.4-17.7c0.1-9.6,8-17.4,17.5-17.4l0.1,0c9.7,0.1,17.5,8,17.4,17.7c0,2.1-0.4,4.1-1.1,6h0
			C60.7,50.4,60.8,50.6,61.1,50.8 M67.7,11.2c-0.2-0.1-0.5-0.1-0.7,0.1L64.4,15c-0.1,0.2-0.1,0.5,0.1,0.7v0
			C73.3,22,79.1,32.3,79.1,44c0,19.1-15.6,34.7-34.7,34.7C25.3,78.6,9.8,63.1,9.8,44c0-19.1,15.6-34.7,34.7-34.7
			c4.2,0,8.1,0.7,11.8,2.1v0c0.2,0.1,0.5,0,0.6-0.3l1.6-4.3c0.1-0.2,0-0.5-0.3-0.6c-4.3-1.6-9-2.5-13.8-2.5
			C22.3,3.8,4.3,21.8,4.3,44c0,22.1,18,40.2,40.2,40.2c22.1,0,40.2-18,40.2-40.2C84.6,30.4,77.9,18.5,67.7,11.2"/>
	</g>
</g>
</svg>
