<?xml version="1.0" encoding="UTF-8" standalone="no"?>
<!DOCTYPE svg PUBLIC "-//W3C//DTD SVG 1.1//EN" "http://www.w3.org/Graphics/SVG/1.1/DTD/svg11.dtd">
<svg width="100%" height="100%" viewBox="0 0 430 200" version="1.1" xmlns="http://www.w3.org/2000/svg" xmlns:xlink="http://www.w3.org/1999/xlink" xml:space="preserve" xmlns:serif="http://www.serif.com/" style="fill-rule:evenodd;clip-rule:evenodd;stroke-linejoin:round;stroke-miterlimit:1.41421;">
    <g transform="matrix(1,0,0,1,291,323.438)">
        <g id="a" transform="matrix(1.18916,0,0,1.18916,-272.241,-297.834)">
            <path d="M110.602,39.129C112.116,39.566 113.618,40.042 115.109,40.555C130.229,45.784 140,53.975 140,62.444C140,71.276 129.558,79.912 113.508,85.254C112.66,85.536 111.791,85.807 110.905,86.07C111.215,87.316 111.495,88.57 111.744,89.83C114.913,105.906 112.473,119.121 104.963,123.487C97.693,127.715 85.941,123.562 74.043,113.277C72.749,112.156 71.487,110.999 70.258,109.808C69.307,110.734 68.333,111.636 67.337,112.513C55.053,123.299 42.438,127.774 34.922,123.421C27.645,119.204 25.358,106.904 28.286,91.412C28.606,89.728 28.973,88.054 29.386,86.392C28.114,86.027 26.852,85.63 25.6,85.202C10.161,79.902 0,71.16 0,62.444C0,54.005 9.466,45.869 24.288,40.678C25.999,40.082 27.726,39.537 29.469,39.042C29.085,37.498 28.74,35.944 28.435,34.383C25.363,18.618 27.525,6.019 34.821,1.776C42.431,-2.649 55.103,2.103 67.745,13.379C68.532,14.082 69.305,14.799 70.065,15.532C71.2,14.431 72.362,13.36 73.551,12.318C85.614,1.773 97.559,-2.639 104.862,1.592C112.479,6.004 114.71,19.406 111.298,36.041C111.085,37.075 110.853,38.104 110.602,39.129ZM109.276,80.289C110.064,80.055 110.847,79.809 111.627,79.551L111.628,79.551C125.485,74.938 134.02,67.881 134.02,62.444C134.02,57.34 126.117,50.716 113.162,46.236C111.786,45.762 110.398,45.322 109,44.916C107.278,50.516 104.979,56.43 102.186,62.474C105.112,68.664 107.504,74.655 109.276,80.29L109.276,80.289ZM106.55,109.557C107.478,104.533 107.278,98.105 105.877,90.997C105.652,89.857 105.399,88.722 105.12,87.594C99.32,88.941 92.927,89.927 86.158,90.53C82.311,96.125 78.368,101.164 74.423,105.499C75.566,106.606 76.74,107.681 77.943,108.723C88.119,117.519 97.554,120.853 101.966,118.288C104.04,117.082 105.716,114.072 106.55,109.557ZM37.91,118.216C39.985,119.417 43.418,119.374 47.729,117.845C52.526,116.142 57.969,112.759 63.401,107.989C64.311,107.189 65.2,106.366 66.069,105.522C61.981,101.115 57.924,96.082 54.051,90.607C47.267,90.054 40.919,89.137 35.185,87.863C34.801,89.41 34.46,90.967 34.162,92.533C31.659,105.78 33.494,115.658 37.91,118.216ZM11.206,70.804C15.07,74.127 20.708,77.174 27.535,79.517C28.678,79.908 29.83,80.27 30.991,80.604C32.759,74.813 35.09,68.732 37.899,62.59C35.126,56.538 32.828,50.553 31.076,44.829C29.455,45.289 27.848,45.797 26.257,46.352C13.581,50.792 5.98,57.323 5.98,62.444C5.98,64.85 7.734,67.816 11.206,70.804ZM37.817,6.976C33.42,9.532 31.673,19.722 34.304,33.23L34.304,33.229C34.588,34.681 34.909,36.126 35.266,37.562C41.061,36.243 47.364,35.259 53.948,34.646C57.788,29.202 61.808,24.207 65.874,19.82C65.186,19.158 64.486,18.508 63.774,17.872C52.858,8.136 42.5,4.252 37.817,6.976ZM90.437,41.176C91.906,43.49 93.326,45.834 94.694,48.209C96.085,50.621 97.427,53.061 98.721,55.527C100.492,51.363 101.996,47.301 103.202,43.417C98.986,42.46 94.726,41.712 90.436,41.176L90.437,41.176ZM78.306,34.104C75.588,30.467 72.826,27.115 70.066,24.114C67.266,27.15 64.479,30.497 61.759,34.1C67.272,33.841 72.793,33.842 78.306,34.104ZM41.33,55.523C43.852,50.611 46.603,45.82 49.574,41.165C45.136,41.722 40.876,42.455 36.882,43.353C38.099,47.293 39.589,51.373 41.33,55.523ZM36.8,82.068C40.793,82.941 45.117,83.638 49.702,84.152C46.688,79.453 43.896,74.614 41.337,69.652C39.558,73.891 38.035,78.058 36.799,82.068L36.8,82.068ZM61.809,91.072C64.57,94.728 67.398,98.126 70.232,101.199C72.972,98.169 75.725,94.765 78.452,91.043C75.675,91.167 72.854,91.231 70,91.231C67.222,91.231 64.49,91.178 61.809,91.072ZM103.48,81.808C102.227,77.866 100.649,73.721 98.778,69.436C97.48,71.95 96.126,74.434 94.718,76.888C93.333,79.302 91.9,81.687 90.42,84.044C95.038,83.488 99.42,82.738 103.48,81.808ZM82.82,84.772C85.176,81.217 87.416,77.586 89.537,73.886C91.677,70.164 93.683,66.367 95.553,62.503C93.664,58.677 91.651,54.914 89.518,51.219C87.397,47.534 85.147,43.925 82.772,40.399C74.278,39.753 65.747,39.752 57.252,40.395C54.853,43.927 52.589,47.549 50.464,51.252L50.464,51.25C48.338,54.954 46.352,58.736 44.509,62.588C48.216,70.311 52.5,77.743 57.324,84.822C61.406,85.088 65.644,85.224 70,85.224C74.374,85.224 78.667,85.07 82.82,84.772ZM105.441,34.828C108.386,20.465 106.563,9.513 101.875,6.797C97.473,4.247 87.813,7.815 77.477,16.85C76.379,17.812 75.306,18.801 74.257,19.817C78.259,24.147 82.245,29.151 86.092,34.654C92.696,35.276 99.003,36.278 104.811,37.624C105.038,36.696 105.247,35.764 105.441,34.828Z"/>
        </g>
        <g id="b" transform="matrix(1.18916,0,0,1.18916,-207.648,-234.809)">
            <path d="M0,0L6.826,0L6.826,6.552L0,6.552L0,0ZM0,13.073L0,19L6.826,19L6.826,13.073L0,13.073ZM12.595,13.073L12.595,19L29,19L29,13.073L12.595,13.073ZM29,6.552L29,0L12.595,0L12.595,6.552L29,6.552Z"/>
        </g>
        <g transform="matrix(1,0,0,1,-397.323,-290.892)">
            <path d="M308.469,12.671L325.173,12.671C330.037,12.671 333.802,13.844 336.469,16.191C339.135,18.537 340.469,21.844 340.469,26.111C340.469,28.969 339.743,31.465 338.293,33.599C336.842,35.732 334.794,37.332 332.149,38.399C331.765,38.527 331.573,38.761 331.573,39.103C331.573,39.273 331.637,39.487 331.765,39.743L334.005,42.943L339.317,57.471L329.141,57.471L322.549,39.551L318.709,39.551L318.709,57.471L308.469,57.471L308.469,12.671ZM325.557,31.231C327.391,31.231 328.821,30.783 329.845,29.887C330.869,28.991 331.381,27.732 331.381,26.111C331.381,24.489 330.869,23.231 329.845,22.335C328.821,21.439 327.391,20.991 325.557,20.991L318.645,20.991L318.645,31.231L325.557,31.231Z" style="fill-rule:nonzero;"/>
            <path d="M370.421,43.455L352.885,43.455C352.885,44.009 352.906,44.415 352.949,44.671C353.29,48.425 355.679,50.303 360.117,50.303C362.293,50.303 364.725,49.684 367.413,48.447L369.845,55.295C367.029,57.172 363.786,58.111 360.117,58.111C355.765,58.111 352.181,57.076 349.365,55.007C346.549,52.937 344.885,50.281 344.373,47.039C344.117,44.991 343.989,43.156 343.989,41.535C343.989,39.828 344.117,37.929 344.373,35.839C344.842,32.383 346.271,29.577 348.661,27.423C351.05,25.268 354.143,24.191 357.941,24.191C362.549,24.191 366.005,25.545 368.309,28.255C370.613,30.964 371.765,34.921 371.765,40.127L370.421,43.455ZM363.061,36.991C362.719,33.449 361.055,31.679 358.069,31.679C356.49,31.679 355.306,32.127 354.517,33.023C353.727,33.919 353.226,35.241 353.013,36.991L363.061,36.991Z" style="fill-rule:nonzero;"/>
            <path d="M395.637,55.487C395.381,55.145 395.103,54.975 394.805,54.975C394.677,54.975 394.463,55.081 394.165,55.295C391.861,57.087 389.237,57.983 386.293,57.983C383.221,57.983 380.778,57.087 378.965,55.295C377.151,53.503 376.245,51.199 376.245,48.383C376.245,45.396 377.301,43.081 379.413,41.439C381.525,39.796 384.223,38.975 387.509,38.975L393.077,38.975L393.077,35.839C393.077,33.151 391.178,31.807 387.381,31.807C384.863,31.807 382.154,32.66 379.253,34.367L376.629,27.199C380.255,25.108 384.074,24.063 388.085,24.063C392.565,24.063 395.946,25.129 398.229,27.263C400.511,29.396 401.653,32.233 401.653,35.775L401.653,48.575L405.045,53.439L397.685,58.239L395.637,55.487ZM388.341,51.263C389.791,51.263 390.943,50.804 391.797,49.887C392.65,48.969 393.077,47.785 393.077,46.335L393.077,45.503C393.077,45.247 392.97,45.076 392.757,44.991C392.543,44.905 392.266,44.905 391.925,44.991L389.621,45.695L387.637,45.695C386.613,45.695 385.845,45.919 385.333,46.367C384.821,46.815 384.565,47.444 384.565,48.255C384.565,49.108 384.927,49.823 385.653,50.399C386.378,50.975 387.274,51.263 388.341,51.263Z" style="fill-rule:nonzero;"/>
            <path d="M423.477,58.239C419.253,58.239 415.882,57.193 413.365,55.103C410.847,53.012 409.375,50.26 408.949,46.847C408.693,44.799 408.565,42.879 408.565,41.087C408.565,38.953 408.693,37.033 408.949,35.327C409.418,31.956 410.89,29.236 413.365,27.167C415.839,25.097 419.146,24.063 423.285,24.063C425.29,24.063 427.146,24.329 428.853,24.863C430.559,25.396 431.989,26.153 433.141,27.135L430.581,34.175C429.557,33.407 428.543,32.841 427.541,32.479C426.538,32.116 425.333,31.935 423.925,31.935C422.175,31.935 420.767,32.383 419.701,33.279C418.634,34.175 418.058,35.305 417.973,36.671C417.845,38.249 417.781,39.721 417.781,41.087C417.781,42.409 417.845,43.903 417.973,45.567C418.058,46.932 418.645,48.063 419.733,48.959C420.821,49.855 422.282,50.303 424.117,50.303C426.378,50.303 428.597,49.62 430.773,48.255L433.205,55.103C430.517,57.193 427.274,58.239 423.477,58.239Z" style="fill-rule:nonzero;"/>
            <path d="M449.141,57.407C446.922,57.449 445.087,56.756 443.637,55.327C442.186,53.897 441.461,52.052 441.461,49.791L441.461,32.511L436.405,32.511L436.405,24.831L440.437,24.831C440.863,24.831 441.162,24.713 441.333,24.479C441.503,24.244 441.695,23.679 441.909,22.783C442.122,21.887 442.357,20.735 442.613,19.327L442.997,17.151L450.805,17.151L450.805,24.831L456.117,24.831L456.117,32.511L450.805,32.511L450.805,48.127C450.805,48.425 450.901,48.671 451.093,48.863C451.285,49.055 451.53,49.151 451.829,49.151L456.693,49.151L456.693,57.407L449.141,57.407Z" style="fill-rule:nonzero;"/>
            <path d="M308.469,76.671L335.989,76.671L335.989,85.631L318.709,85.631L318.709,94.591L334.901,94.591L334.901,103.551L318.709,103.551L318.709,121.471L308.469,121.471L308.469,76.671Z" style="fill-rule:nonzero;"/>
            <path d="M344.949,76.671L354.549,76.671L354.549,84.479L344.949,84.479L344.949,76.671ZM344.949,96.767L339.189,96.767L339.189,88.831L354.549,88.831L354.549,121.471L344.949,121.471L344.949,96.767Z" style="fill-rule:nonzero;"/>
            <path d="M362.869,88.831L372.469,88.831L372.469,90.623C374.687,88.916 377.269,88.063 380.213,88.063C383.285,88.063 385.877,88.916 387.989,90.623C390.101,92.329 391.157,94.804 391.157,98.047L391.157,121.471L381.557,121.471L381.557,101.375C381.557,99.711 381.247,98.527 380.629,97.823C380.01,97.119 378.847,96.767 377.141,96.767C375.434,96.767 374.229,97.129 373.525,97.855C372.821,98.58 372.469,99.753 372.469,101.375L372.469,121.471L362.869,121.471L362.869,88.831Z" style="fill-rule:nonzero;"/>
            <path d="M406.837,121.407C404.575,121.407 402.73,120.692 401.301,119.263C399.871,117.833 399.157,116.009 399.157,113.791L399.157,73.471L408.501,73.471L408.501,112.127C408.501,112.425 408.597,112.671 408.789,112.863C408.981,113.055 409.226,113.151 409.525,113.151L412.981,113.151L412.981,121.407L406.837,121.407Z" style="fill-rule:nonzero;"/>
            <path d="M436.213,119.487C435.957,119.145 435.679,118.975 435.381,118.975C435.253,118.975 435.039,119.081 434.741,119.295C432.437,121.087 429.813,121.983 426.869,121.983C423.797,121.983 421.354,121.087 419.541,119.295C417.727,117.503 416.821,115.199 416.821,112.383C416.821,109.396 417.877,107.081 419.989,105.439C422.101,103.796 424.799,102.975 428.085,102.975L433.653,102.975L433.653,99.839C433.653,97.151 431.754,95.807 427.957,95.807C425.439,95.807 422.73,96.66 419.829,98.367L417.205,91.199C420.831,89.108 424.65,88.063 428.661,88.063C433.141,88.063 436.522,89.129 438.805,91.263C441.087,93.396 442.229,96.233 442.229,99.775L442.229,112.575L445.621,117.439L438.261,122.239L436.213,119.487ZM428.917,115.263C430.367,115.263 431.519,114.804 432.373,113.887C433.226,112.969 433.653,111.785 433.653,110.335L433.653,109.503C433.653,109.247 433.546,109.076 433.333,108.991C433.119,108.905 432.842,108.905 432.501,108.991L430.197,109.695L428.213,109.695C427.189,109.695 426.421,109.919 425.909,110.367C425.397,110.815 425.141,111.444 425.141,112.255C425.141,113.108 425.503,113.823 426.229,114.399C426.954,114.975 427.85,115.263 428.917,115.263Z" style="fill-rule:nonzero;"/>
            <path d="M451.061,88.831L460.661,88.831L460.661,90.623C462.879,88.916 465.461,88.063 468.405,88.063C471.477,88.063 474.069,88.916 476.181,90.623C478.293,92.329 479.349,94.804 479.349,98.047L479.349,121.471L469.749,121.471L469.749,101.375C469.749,99.711 469.439,98.527 468.821,97.823C468.202,97.119 467.039,96.767 465.333,96.767C463.626,96.767 462.421,97.129 461.717,97.855C461.013,98.58 460.661,99.753 460.661,101.375L460.661,121.471L451.061,121.471L451.061,88.831Z" style="fill-rule:nonzero;"/>
            <path d="M497.973,122.111C490.847,122.111 486.986,118.612 486.389,111.615C486.175,108.713 486.069,106.516 486.069,105.023C486.069,102.804 486.175,100.649 486.389,98.559C486.73,95.103 487.893,92.489 489.877,90.719C491.861,88.948 494.773,88.063 498.613,88.063C499.978,88.063 501.29,88.244 502.549,88.607C503.807,88.969 504.821,89.449 505.589,90.047L505.589,73.471L515.189,73.471L515.189,121.471L505.589,121.471L505.589,119.999C505.589,119.487 505.397,119.231 505.013,119.231C504.799,119.231 504.543,119.316 504.245,119.487L500.149,121.855C499.509,122.025 498.783,122.111 497.973,122.111ZM500.661,114.175C502.197,114.175 503.402,113.759 504.277,112.927C505.151,112.095 505.589,111.017 505.589,109.695L505.589,100.479C505.589,99.071 505.183,97.983 504.373,97.215C503.562,96.447 502.325,96.063 500.661,96.063C499.253,96.063 498.143,96.393 497.333,97.055C496.522,97.716 496.074,98.58 495.989,99.647C495.818,102.036 495.733,103.849 495.733,105.087C495.733,106.367 495.818,108.201 495.989,110.591C496.074,111.657 496.501,112.521 497.269,113.183C498.037,113.844 499.167,114.175 500.661,114.175Z" style="fill-rule:nonzero;"/>
        </g>
    </g>
</svg>
