<?xml version="1.0" encoding="utf-8"?>
<!-- Generator: Adobe Illustrator 19.0.0, SVG Export Plug-In . SVG Version: 6.00 Build 0)  -->
<svg version="1.1" id="Layer_1" xmlns="http://www.w3.org/2000/svg" xmlns:xlink="http://www.w3.org/1999/xlink" x="0px" y="0px"
	 viewBox="0 0 122.8 109.5" style="enable-background:new 0 0 122.8 109.5;" xml:space="preserve">
<style type="text/css">
	.st0{fill:#00dd3b;}
	.st1{fill-rule:evenodd;clip-rule:evenodd;fill:#00dd3b;}
</style>
<g>
	<path class="st0" d="M68.3,29.4c-2.3-2.9-4.5-5.7-6.9-8.1c-2.3,2.5-4.6,5.2-6.8,8.1C59.1,29.2,63.7,29.2,68.3,29.4L68.3,29.4z
		 M57.4,17.3c-5.1-4.9-17-14.6-23.8-10.7v0c-6.9,4-4.3,19.1-2.7,25.9c5-1.1,10.4-2,16.2-2.6C50.5,25.3,53.9,21,57.4,17.3L57.4,17.3z
		 M79.9,73.3c3.7-0.5,7.2-1.1,10.5-1.9c-1-3.2-2.2-6.6-3.6-10C84.7,65.5,82.4,69.5,79.9,73.3L79.9,73.3z M75.7,79.5
		c-3.3,4.7-6.8,9-10.3,12.7c1.6,1.5,3.1,2.8,4.6,4.1c7.9,6.3,15,9,19.2,6.6h0c6.9-4,4.3-19.1,2.7-26C86.9,78.1,81.5,79,75.7,79.5
		L75.7,79.5z M61.4,96.3c-7.1,6.8-20.8,17.3-30.7,11.5l0,0c-9.9-5.7-7.7-22.7-5.3-32.3C15.9,72.7,0,66.2,0,54.7
		c0-11.4,15.9-18,25.4-20.8C23,24.4,20.8,7.4,30.7,1.6h0c9.9-5.7,23.6,4.7,30.7,11.5C68.6,6.4,82.2-4.1,92.1,1.6l0,0
		c9.9,5.7,7.7,22.7,5.3,32.3c9.5,2.8,25.4,9.4,25.4,20.8c0,11.4-15.9,18-25.4,20.8c2.3,9.6,4.6,26.6-5.3,32.3l0,0
		c-6.5,3.8-15.9,0.8-25.6-7.1C64.8,99.4,63.1,97.9,61.4,96.3L61.4,96.3z M26.9,70c1.5-4.9,3.5-10,5.9-15.3
		c-2.4-5.3-4.4-10.4-5.9-15.3c-6.8,2-21.2,7.4-21.2,15.3C5.7,62.7,20.1,68.1,26.9,70L26.9,70z M36,48c2.1-4.1,4.4-8,6.9-11.8
		c-3.7,0.5-7.2,1.1-10.5,1.9C33.4,41.2,34.6,44.6,36,48L36,48z M95.9,39.4c-1.5,4.9-3.5,10-5.9,15.3c2.4,5.3,4.4,10.4,5.9,15.3
		c6.7-2,21.2-7.4,21.2-15.3C117.1,46.8,102.7,41.4,95.9,39.4L95.9,39.4z M57.4,92.2c-3.5-3.7-6.9-8-10.3-12.7
		c-5.7-0.5-11.2-1.4-16.2-2.6c-1.7,6.8-4.2,22,2.7,26l0,0C40.5,106.9,52.3,97.1,57.4,92.2L57.4,92.2z M61.4,88.2
		c2.3-2.5,4.6-5.2,6.9-8.1c-4.6,0.2-9.1,0.2-13.7,0C56.8,83,59.1,85.7,61.4,88.2L61.4,88.2z M72.6,74.1c4.2-6.1,7.9-12.6,11.1-19.3
		c-3.2-6.7-7-13.2-11.2-19.3c-7.4-0.5-14.9-0.5-22.4,0c-4.2,6.1-7.9,12.7-11.2,19.3c3.2,6.7,7,13.2,11.2,19.3
		C57.7,74.6,65.2,74.6,72.6,74.1L72.6,74.1z M86.8,48c1.4-3.4,2.7-6.8,3.7-10c-3.3-0.8-6.8-1.4-10.5-1.9C82.4,40,84.7,44,86.8,48
		L86.8,48z M91.9,32.5c1.7-6.8,4.2-22-2.7-25.9h0c-6.9-4-18.8,5.8-23.8,10.6c3.5,3.8,7,8,10.3,12.7C81.5,30.5,87,31.4,91.9,32.5
		L91.9,32.5z M36,61.4c-1.4,3.4-2.6,6.8-3.6,10c3.3,0.7,6.8,1.4,10.5,1.9C40.5,69.5,38.2,65.5,36,61.4L36,61.4z"/>
	<path class="st1" d="M58.5,38.1l2.9,2.9l2.9-2.9l2.3,2.4l-2.9,2.9l2.9,2.9l-2.3,2.3l-2.9-2.9l-2.9,2.9l-2.4-2.3l2.9-2.9l-2.9-2.9
		L58.5,38.1z M66.6,63.3l-2.9,2.9l2.9,2.9l-2.3,2.3l-2.9-2.9l-2.9,2.9L56.2,69l2.9-2.9l-2.9-2.9l2.4-2.4l2.9,2.9l2.9-2.9L66.6,63.3z
		 M66.6,51.9l-2.9,2.9l2.9,2.9L64.3,60l-2.9-2.9L58.5,60l-2.4-2.3l2.9-2.9l-2.9-2.9l2.4-2.4l2.9,2.9l2.9-2.9L66.6,51.9z"/>
</g>
</svg>
