<?xml version="1.0" encoding="UTF-8"?>
<svg width="164px" height="44px" viewBox="0 0 164 44" version="1.1" xmlns="http://www.w3.org/2000/svg" xmlns:xlink="http://www.w3.org/1999/xlink">
    <!-- Generator: Sketch 48.1 (47250) - http://www.bohemiancoding.com/sketch -->
    <title>accenture-logo</title>
    <desc>Created with Sketch.</desc>
    <defs></defs>
    <g id="Page-1" stroke="none" stroke-width="1" fill="none" fill-rule="evenodd">
        <g id="accenture-logo" fill="#000000" fill-rule="nonzero">
            <path d="M95.5,12.7 L104.9,9.2 L95.5,5.5 L95.5,0.6 L111.6,7.1 L111.6,11.1 L95.5,17.6 L95.5,12.7 Z M6.6,43.7 C3.2,43.7 0.4,42 0.4,38.2 L0.4,38 C0.4,33.4 4.4,31.8 9.3,31.8 L11.6,31.8 L11.6,30.9 C11.6,29 10.8,27.9 8.8,27.9 C7,27.9 6.1,28.9 6,30.3 L1,30.3 C1.4,26.1 4.7,24.1 9.1,24.1 C13.6,24.1 16.9,26 16.9,30.7 L16.9,43.3 L11.8,43.3 L11.8,41.1 C10.8,42.5 9.1,43.7 6.6,43.7 Z M11.6,37 L11.6,35.2 L9.5,35.2 C6.9,35.2 5.6,35.9 5.6,37.6 L5.6,37.8 C5.6,39.1 6.4,40 8.2,40 C10,40 11.6,39 11.6,37 Z M28.8,43.7 C23.6,43.7 19.8,40.5 19.8,34.1 L19.8,33.8 C19.8,27.4 23.8,24 28.8,24 C33.1,24 36.6,26.2 37,31.1 L32,31.1 C31.7,29.3 30.7,28.1 28.9,28.1 C26.7,28.1 25.1,29.9 25.1,33.6 L25.1,34.2 C25.1,38 26.5,39.7 28.9,39.7 C30.7,39.7 32,38.4 32.3,36.3 L37.1,36.3 C36.8,40.6 33.9,43.7 28.8,43.7 Z M48.4,43.7 C43.2,43.7 39.4,40.5 39.4,34.1 L39.4,33.8 C39.4,27.4 43.4,24 48.4,24 C52.7,24 56.2,26.2 56.6,31.1 L51.6,31.1 C51.3,29.3 50.3,28.1 48.5,28.1 C46.3,28.1 44.7,29.9 44.7,33.6 L44.7,34.2 C44.7,38 46.1,39.7 48.5,39.7 C50.3,39.7 51.6,38.4 51.9,36.3 L56.7,36.3 C56.4,40.6 53.5,43.7 48.4,43.7 Z M68.1,43.7 C62.7,43.7 59,40.5 59,34.2 L59,33.8 C59,27.5 62.9,24 68,24 C72.7,24 76.6,26.6 76.6,32.9 L76.6,35.2 L64.4,35.2 C64.6,38.6 66.1,39.9 68.3,39.9 C70.3,39.9 71.4,38.8 71.8,37.5 L76.7,37.5 C76,41 73.1,43.7 68.1,43.7 Z M64.4,31.7 L71.5,31.7 C71.4,28.9 70.1,27.7 68,27.7 C66.3,27.8 64.8,28.7 64.4,31.7 Z M79.8,24.5 L85.1,24.5 L85.1,27.3 C86,25.5 87.9,24.1 90.8,24.1 C94.2,24.1 96.5,26.2 96.5,30.7 L96.5,43.3 L91.2,43.3 L91.2,31.5 C91.2,29.3 90.3,28.3 88.4,28.3 C86.6,28.3 85.1,29.4 85.1,31.8 L85.1,43.3 L79.8,43.3 L79.8,24.5 Z M106.2,18.8 L106.2,24.5 L109.8,24.5 L109.8,28.4 L106.2,28.4 L106.2,37.3 C106.2,38.7 106.8,39.4 108.1,39.4 C108.9,39.4 109.4,39.3 109.9,39.1 L109.9,43.2 C109.3,43.4 108.2,43.6 106.9,43.6 C102.8,43.6 100.9,41.7 100.9,37.9 L100.9,28.4 L98.7,28.4 L98.7,24.5 L100.9,24.5 L100.9,21 L106.2,18.8 Z M129.6,43.3 L124.3,43.3 L124.3,40.5 C123.4,42.3 121.6,43.7 118.8,43.7 C115.4,43.7 112.9,41.6 112.9,37.2 L112.9,24.5 L118.2,24.5 L118.2,36.5 C118.2,38.7 119.1,39.7 120.9,39.7 C122.7,39.7 124.2,38.5 124.2,36.2 L124.2,24.6 L129.5,24.6 L129.5,43.3 L129.6,43.3 Z M133.5,24.5 L138.8,24.5 L138.8,28 C139.9,25.5 141.7,24.3 144.5,24.3 L144.5,29.5 C140.9,29.5 138.8,30.6 138.8,33.7 L138.8,43.4 L133.5,43.4 L133.5,24.5 Z M155.2,43.7 C149.8,43.7 146.1,40.5 146.1,34.2 L146.1,33.8 C146.1,27.5 150,24 155.1,24 C159.8,24 163.7,26.6 163.7,32.9 L163.7,35.2 L151.5,35.2 C151.7,38.6 153.2,39.9 155.4,39.9 C157.4,39.9 158.5,38.8 158.9,37.5 L163.8,37.5 C163,41 160.1,43.7 155.2,43.7 Z M151.4,31.7 L158.5,31.7 C158.4,28.9 157.1,27.7 155,27.7 C153.4,27.8 151.9,28.7 151.4,31.7 Z" id="Shape"></path>
        </g>
    </g>
</svg>