<svg width="419" height="157" viewBox="0 0 419 157" xmlns="http://www.w3.org/2000/svg" xmlns:xlink="http://www.w3.org/1999/xlink"><title>Logo</title><desc>Created using Figma</desc><g transform="translate(2125 366)"><use xlink:href="#a" transform="translate(-1963 -282)" fill="#DD4C39"/><use xlink:href="#b" transform="translate(-1963 -282)" fill="#DD4C39"/><use xlink:href="#c" transform="translate(-1963 -282)" fill="#DD4C39"/><use xlink:href="#d" transform="translate(-1963 -282)" fill="#DD4C39"/><g><use xlink:href="#e" transform="translate(-2125 -366)" fill="#DD4B39"/></g></g><defs><path id="a" d="M56.444 53.962c-2.696 3.089-6.023 5.548-9.981 7.378-3.958 1.773-8.518 2.66-13.68 2.66-4.705 0-9.064-.772-13.08-2.316-3.957-1.545-7.399-3.718-10.324-6.52-2.926-2.86-5.22-6.263-6.884-10.21C.832 41.008 0 36.661 0 31.914c0-4.861.832-9.265 2.495-13.212 1.721-3.946 4.073-7.292 7.056-10.037 2.982-2.803 6.481-4.947 10.497-6.434C24.063.744 28.394 0 33.04 0c4.302 0 8.518.772 12.648 2.316 4.188 1.487 7.572 3.69 10.153 6.606l-9.98 9.952c-1.377-1.887-3.184-3.289-5.421-4.204a18.023 18.023 0 0 0-6.883-1.372c-2.582 0-4.962.486-7.142 1.458a16.246 16.246 0 0 0-5.507 3.86c-1.549 1.66-2.753 3.632-3.614 5.92-.86 2.23-1.29 4.69-1.29 7.378 0 2.745.43 5.262 1.29 7.55.86 2.288 2.037 4.26 3.528 5.92 1.549 1.6 3.384 2.86 5.507 3.774 2.122.915 4.445 1.373 6.97 1.373 2.925 0 5.477-.572 7.657-1.716 2.18-1.144 3.93-2.63 5.249-4.461l10.239 9.608z"/><path id="b" d="M125.24 31.743c0 4.804-.831 9.208-2.495 13.211-1.663 3.947-3.986 7.35-6.969 10.21-2.926 2.802-6.425 4.975-10.497 6.52-4.073 1.544-8.49 2.316-13.25 2.316-4.762 0-9.179-.772-13.251-2.316-4.016-1.545-7.515-3.718-10.498-6.52-2.925-2.86-5.22-6.263-6.883-10.21-1.663-4.003-2.495-8.407-2.495-13.211 0-4.862.832-9.237 2.495-13.126 1.664-3.947 3.958-7.293 6.884-10.038 2.982-2.745 6.481-4.861 10.497-6.348C82.85.744 87.268 0 92.028 0c4.761 0 9.178.744 13.251 2.23 4.072 1.488 7.571 3.604 10.497 6.35 2.983 2.744 5.306 6.09 6.969 10.037 1.664 3.889 2.495 8.264 2.495 13.126zm-15.745 0c0-2.631-.43-5.09-1.291-7.378-.86-2.288-2.065-4.233-3.614-5.834-1.491-1.659-3.327-2.946-5.506-3.86-2.123-.973-4.475-1.46-7.056-1.46-2.581 0-4.933.487-7.055 1.46a16.248 16.248 0 0 0-5.507 3.86c-1.549 1.601-2.753 3.546-3.614 5.834-.803 2.287-1.204 4.747-1.204 7.378 0 2.745.43 5.29 1.29 7.635.86 2.288 2.037 4.261 3.528 5.92a17.32 17.32 0 0 0 5.507 3.946c2.122.915 4.474 1.373 7.055 1.373 2.581 0 4.933-.458 7.056-1.373a17.31 17.31 0 0 0 5.506-3.946c1.549-1.659 2.754-3.632 3.614-5.92.861-2.345 1.291-4.89 1.291-7.635z"/><path id="c" d="M173.647 62.37l-24.522-39.721h-.259l.345 39.721h-14.283V1.63h16.778l24.436 39.635h.258l-.344-39.635h14.283v60.74h-16.692z"/><path id="d" d="M217.445 14.155v12.526h23.576v12.097h-23.576V62.37h-14.541V1.63H243v12.526h-25.555z"/><path id="e" fill-rule="evenodd" d="M0 0h156v156H0V0zm73.39 146.894l-8.838-16.768H52.813v16.768H36.994V86.311h27.224c8.007 0 14.215 1.858 18.623 5.575 4.409 3.717 6.614 8.95 6.617 15.7 0 4.552-.922 8.484-2.766 11.796a19.122 19.122 0 0 1-8.039 7.735l12.619 19.792-17.883-.015zM52.82 117.507h11.496c3.226 0 5.718-.807 7.478-2.42 1.76-1.614 2.638-3.948 2.636-7.001 0-2.938-.879-5.2-2.636-6.786-1.758-1.585-4.25-2.378-7.478-2.378H52.814l.007 18.585zm46.746-31.196h47.795v12.618h-31.98v11.324h28.868v12.53l-28.868.088v11.408h32.841v12.615H99.567V86.311z"/></defs></svg>