<svg width="1500" height="500" viewBox="0 0 1500 500" xmlns="http://www.w3.org/2000/svg"><title>React-Vienna-Text</title><g fill="none" fill-rule="evenodd"><path d="M145.624 230.44c0-19.296-13.248-28.8-38.736-28.8H79.24V301h16.704v-40.896h10.8L131.8 301h19.44l-28.224-43.2c12.816-3.888 22.608-12.816 22.608-27.36zm-17.424 0c0 12.528-7.2 17.424-19.872 17.424H95.944v-33.84h11.952c13.68 0 20.304 4.752 20.304 16.416zm41.408 37.728h50.4c.288-1.872.432-4.608.432-7.2 0-23.616-12.672-38.016-32.832-38.016-21.6 0-34.704 17.28-34.704 40.032 0 23.76 12.96 39.888 36.72 39.888 10.656 0 20.592-3.6 27.648-9.36l-6.912-9.792c-6.48 4.32-12.672 6.624-20.016 6.624-10.944 0-19.728-6.624-20.736-22.176zm18.144-33.264c10.8 0 16.704 7.92 16.992 22.32h-35.28c1.008-15.264 8.208-22.32 18.288-22.32zm103.04 47.52V248.44c0-15.984-9.936-25.488-30.384-25.488-7.776 0-17.136 1.584-26.64 5.184l4.032 11.376c7.632-2.736 15.12-3.888 20.16-3.888 10.656 0 16.848 3.888 16.848 13.824v4.896h-10.8c-23.184 0-36.144 9.072-36.144 24.912 0 14.112 9.504 23.616 25.056 23.616 9.648 0 18.576-3.456 24.192-10.512 2.736 6.624 8.352 9.648 15.696 10.512l3.744-10.944c-4.032-1.296-5.76-3.6-5.76-9.504zm-33.12 8.64c-8.496 0-12.816-4.32-12.816-12.384 0-8.928 5.904-14.256 21.024-14.256h8.928v16.848c-3.744 6.192-10.512 9.792-17.136 9.792zm88.064-1.44c-11.808 0-20.448-7.2-20.448-26.208s8.352-27.504 20.448-27.504c6.48 0 12.672 2.304 18.576 6.336l7.488-10.08c-7.344-6.048-15.984-9.216-26.352-9.216-23.472 0-37.296 17.28-37.296 40.464 0 23.76 13.536 39.456 37.008 39.456 10.08 0 20.016-3.744 26.64-9.36l-7.344-10.368c-5.616 3.744-11.664 6.48-18.72 6.48zm103.184 7.344l-5.76-10.656c-3.888 2.16-8.64 3.6-14.112 3.6-9.36 0-13.248-3.888-13.248-12.096v-41.04h23.904l1.872-11.808H415.8v-18.864l-16.128 1.872v16.992h-16.848v11.808h16.848v41.184c0 14.976 9.36 24.912 27.072 24.912 8.496 0 16.56-2.304 22.176-5.904z" fill="#607096"/><path d="M999.488 285.16l-23.472-83.52H958.16L989.696 301h19.008l31.536-99.36h-16.992l-23.76 83.52zm76.112-97.488c-6.336 0-10.512 4.464-10.512 10.224s4.176 10.08 10.512 10.08c6.192 0 10.512-4.32 10.512-10.08s-4.32-10.224-10.512-10.224zm11.088 37.296h-38.016v11.808h21.888v52.416h-22.608V301h59.472v-11.808h-20.736v-64.224zm48.32 43.2h50.4c.288-1.872.432-4.608.432-7.2 0-23.616-12.672-38.016-32.832-38.016-21.6 0-34.704 17.28-34.704 40.032 0 23.76 12.96 39.888 36.72 39.888 10.656 0 20.592-3.6 27.648-9.36l-6.912-9.792c-6.48 4.32-12.672 6.624-20.016 6.624-10.944 0-19.728-6.624-20.736-22.176zm18.144-33.264c10.8 0 16.704 7.92 16.992 22.32h-35.28c1.008-15.264 8.208-22.32 18.288-22.32zM1198.016 301h16.128v-54.576c4.032-5.76 10.368-11.088 17.856-11.088 9.216 0 10.8 5.04 10.8 18.288V301h16.128v-55.44c0-14.256-7.056-22.608-21.168-22.608-9.216 0-18.288 4.176-24.624 11.952l-1.152-9.936h-13.968V301zm76.4 0h16.128v-54.576c4.032-5.76 10.368-11.088 17.856-11.088 9.216 0 10.8 5.04 10.8 18.288V301h16.128v-55.44c0-14.256-7.056-22.608-21.168-22.608-9.216 0-18.288 4.176-24.624 11.952l-1.152-9.936h-13.968V301zm134.576-18.576V248.44c0-15.984-9.936-25.488-30.384-25.488-7.776 0-17.136 1.584-26.64 5.184l4.032 11.376c7.632-2.736 15.12-3.888 20.16-3.888 10.656 0 16.848 3.888 16.848 13.824v4.896h-10.8c-23.184 0-36.144 9.072-36.144 24.912 0 14.112 9.504 23.616 25.056 23.616 9.648 0 18.576-3.456 24.192-10.512 2.736 6.624 8.352 9.648 15.696 10.512l3.744-10.944c-4.032-1.296-5.76-3.6-5.76-9.504zm-33.12 8.64c-8.496 0-12.816-4.32-12.816-12.384 0-8.928 5.904-14.256 21.024-14.256h8.928v16.848c-3.744 6.192-10.512 9.792-17.136 9.792z" fill="#FF6363"/><path d="M707.078 186.91c45.706 0 89.124 6.439 122.132 17.794 36.66 12.61 59.022 31.254 59.022 45.62 0 15.301-24.15 35.167-63.363 48.149-31.218 10.335-72.986 15.968-117.791 15.968-47.07 0-89.309-5.523-120.164-16.062-19.317-6.597-35.27-15.17-46.204-24.527-9.826-8.408-14.786-16.756-14.786-23.529 0-14.413 21.506-32.799 57.375-45.294 33.022-11.503 77.503-18.119 123.779-18.119zm0-16.91c-48.074 0-94.418 6.893-129.35 19.061C535.784 203.673 509 226.571 509 250.323c0 24.532 28.755 49.138 72.44 64.058 32.837 11.215 76.852 16.97 125.638 16.97 46.495 0 90.02-5.87 123.113-16.826 45.416-15.035 74.964-39.342 74.964-64.202 0-23.838-27.65-46.89-70.436-61.609C799.83 176.712 754.566 170 707.078 170z" fill="#607096"/><path d="M652.258 218.255c22.833-39.562 50.106-73.927 76.44-96.827 29.247-25.431 56.582-35.473 69.036-28.297 13.267 7.644 18.425 38.473 10.09 78.9-6.636 32.184-22.618 71.152-45.001 109.935-23.515 40.743-49.404 74.544-73.956 95.988-15.37 13.425-30.772 22.95-44.347 27.74-12.197 4.304-21.913 4.428-27.785 1.044-12.496-7.2-17.69-35-10.605-72.29 6.523-34.33 23.01-76.136 46.128-116.193zm-14.66-8.448c-24.017 41.614-41.194 85.17-48.094 121.486-8.286 43.604-1.816 78.227 18.777 90.094 21.269 12.255 56.965-.342 91.724-30.701 26.128-22.821 53.106-58.044 77.478-100.272 23.227-40.245 39.882-80.852 46.917-114.971 9.653-46.822 3.342-84.542-18.211-96.961-20.667-11.909-54.466.508-88.6 30.19-27.836 24.206-56.268 60.03-79.991 101.135z" fill="#607096"/><path d="M652.22 282.674c-22.9-39.524-39.076-80.296-45.78-114.53-7.444-38.018-2.5-66.697 9.943-73.894 13.254-7.667 42.56 3.264 73.449 30.67 24.592 21.817 50.397 55.113 72.846 93.86 23.582 40.702 39.96 79.995 46.293 111.959 3.964 20.01 4.53 38.1 1.904 52.243-2.36 12.709-7.104 21.18-12.97 24.574-12.485 7.222-39.184-2.164-67.977-26.922-26.507-22.791-54.522-57.942-77.708-97.96zm-14.647 8.472c24.087 41.573 53.276 78.196 81.316 102.306 33.668 28.95 66.921 40.64 87.494 28.739 21.249-12.291 28.154-49.484 19.19-94.736-6.74-34.016-23.806-74.96-48.249-117.148-23.295-40.207-50.186-74.904-76.256-98.033-35.774-31.74-71.632-45.114-93.164-32.659-20.647 11.943-26.761 47.403-18.072 91.777 7.086 36.185 23.95 78.689 47.741 119.754z" fill="#607096"/><path d="M717.08 203v28.214h28.804c.788-12.286 1.059-25.765 1.103-28.214H717.08zm-19.173 28.214V203H668c.045 2.45.315 15.928 1.104 28.214h28.803zm45.921 18.465H717.08v49.344c5.468-3.414 10.37-9.144 13.792-14.637 5.681-9.12 10.59-22.428 12.956-34.707zm-45.92 49.344v-49.344h-26.749c2.365 12.279 7.276 25.587 12.957 34.707 3.422 5.493 8.323 11.223 13.791 14.637z" fill="#FF6363"/></g></svg>