<svg xmlns="http://www.w3.org/2000/svg" viewBox="0 0 406 406"><defs><style>.cls-1{fill:#dd4b39}.cls-2{fill:#fff}</style></defs><title>reasonml_logo_red</title><g id="Ebene_2" data-name="Ebene 2"><g id="Ebene_2-2" data-name="Ebene 2"><path class="cls-1" d="M0 0H406V406H0z"/><path class="cls-2" d="M191 382.3l-23-43.64h-30.55v43.64H96.28V224.63h70.85q31.26 0 48.47 14.51T232.82 280q0 17.77-7.2 30.7a49.77 49.77 0 0 1-20.92 20.13l32.84 51.51zm-53.53-76.48h29.92q12.59 0 19.46-6.3t6.86-18.22q0-11.47-6.86-17.66t-19.46-6.19h-29.94zm121.66-81.19h124.39v32.84h-83.23v29.47h75.13v32.61l-75.13.23v29.69h85.47v32.83H259.13z"/></g></g></svg>