<svg width="796" height="175" viewBox="0 0 796 175" xmlns="http://www.w3.org/2000/svg"><defs><radialGradient cx="0%" cy="14.525%" fx="0%" fy="14.525%" r="78.98%" gradientTransform="matrix(1 0 0 .86 0 .02)" id="a"><stop stop-color="#F7DF1E" offset="0%"/><stop stop-color="#F7DF00" offset="100%"/></radialGradient></defs><g fill="none" fill-rule="evenodd"><path d="M211.448 138.296c-4.704 0-8.976-.528-12.816-1.584s-7.296-2.496-10.368-4.32c-3.072-1.824-5.736-4.008-7.992-6.552-2.256-2.544-4.104-5.256-5.544-8.136l16.416-9.504c2.208 3.552 4.824 6.48 7.848 8.784 3.024 2.304 7.032 3.456 12.024 3.456 4.224 0 7.56-.936 10.008-2.808 2.448-1.872 3.672-4.248 3.672-7.128 0-3.456-1.296-6.048-3.888-7.776-2.592-1.728-6.192-3.6-10.8-5.616l-5.04-2.16c-3.648-1.536-6.96-3.216-9.936-5.04-2.976-1.824-5.52-3.936-7.632-6.336-2.112-2.4-3.744-5.136-4.896-8.208-1.152-3.072-1.728-6.672-1.728-10.8 0-3.744.696-7.248 2.088-10.512 1.392-3.264 3.36-6.096 5.904-8.496 2.544-2.4 5.64-4.272 9.288-5.616 3.648-1.344 7.728-2.016 12.24-2.016 6.432 0 11.976 1.224 16.632 3.672 4.656 2.448 8.664 6.6 12.024 12.456l-15.696 10.08c-1.728-3.072-3.6-5.28-5.616-6.624-2.016-1.344-4.464-2.016-7.344-2.016-2.976 0-5.328.816-7.056 2.448-1.728 1.632-2.592 3.696-2.592 6.192 0 3.072.984 5.4 2.952 6.984 1.968 1.584 5.112 3.336 9.432 5.256l5.04 2.16c4.32 1.824 8.136 3.72 11.448 5.688 3.312 1.968 6.096 4.176 8.352 6.624 2.244 2.43 4.003 5.263 5.184 8.352 1.2 3.12 1.8 6.792 1.8 11.016 0 4.512-.84 8.52-2.52 12.024-1.68 3.504-4.008 6.456-6.984 8.856-2.976 2.4-6.504 4.2-10.584 5.4-4.08 1.2-8.52 1.8-13.32 1.8zm96.192 0c-7.008 0-13.584-1.272-19.728-3.816-6.144-2.544-11.472-6.048-15.984-10.512-4.512-4.464-8.088-9.768-10.728-15.912-2.64-6.144-3.96-12.816-3.96-20.016 0-7.2 1.32-13.872 3.96-20.016 2.64-6.144 6.216-11.448 10.728-15.912s9.84-7.944 15.984-10.44c6.144-2.496 12.72-3.744 19.728-3.744 8.928 0 16.584 1.608 22.968 4.824 6.384 3.216 11.784 8.28 16.2 15.192L331.4 68.888c-2.304-3.744-5.424-6.816-9.36-9.216-3.936-2.4-8.736-3.6-14.4-3.6-4.416 0-8.448.816-12.096 2.448-3.648 1.632-6.768 3.864-9.36 6.696-2.592 2.832-4.608 6.192-6.048 10.08-1.44 3.888-2.16 8.136-2.16 12.744 0 4.608.72 8.88 2.16 12.816 1.44 3.936 3.456 7.344 6.048 10.224s5.712 5.136 9.36 6.768c3.648 1.632 7.68 2.448 12.096 2.448 6.336 0 11.424-1.344 15.264-4.032 3.84-2.688 7.152-6.144 9.936-10.368l15.696 10.8c-4.32 6.624-9.84 11.88-16.56 15.768-6.72 3.888-14.832 5.832-24.336 5.832zm82.368-43.2c8.256 0 14.256-1.44 18-4.32 3.744-2.88 5.616-7.776 5.616-14.688 0-6.912-1.896-11.856-5.688-14.832-3.792-2.976-9.768-4.464-17.928-4.464h-6.336v38.304h6.336zM435.8 137h-23.328l-16.128-24.768c-1.92.288-3.84.432-5.76.432h-6.912V137h-20.16V39.08h27.072c13.728 0 24.456 3.168 32.184 9.504 7.728 6.336 11.592 15.504 11.592 27.504 0 7.68-1.632 13.968-4.896 18.864-3.264 4.896-7.92 8.736-13.968 11.52L435.8 137zm16.56-97.92h20.16V137h-20.16V39.08zm67.392 57.888c8.256 0 14.256-1.656 18-4.968 3.744-3.312 5.616-8.328 5.616-15.048 0-6.816-1.896-11.88-5.688-15.192-3.792-3.312-9.768-4.968-17.928-4.968h-6.336v40.176h6.336zM493.256 39.08h27.072c6.816 0 12.936.864 18.36 2.592 5.424 1.728 10.008 4.224 13.752 7.488 3.744 3.264 6.624 7.248 8.64 11.952 2.016 4.704 3.024 9.984 3.024 15.84 0 5.952-1.008 11.256-3.024 15.912-2.016 4.656-4.896 8.592-8.64 11.808-3.744 3.216-8.328 5.688-13.752 7.416-5.424 1.728-11.544 2.592-18.36 2.592h-6.912V137h-20.16V39.08zM600.68 56.792h-27.936V39.08h76.032v17.712H620.84V137h-20.16V56.792z" fill="#F7DF1E"/><path fill="url(#a)" d="M74.176 0L150 45.742v85.323L74.176 174.33 0 131.066V39.98"/><path d="M682.504 75.96h-15.552V59.832h35.28v59.04h15.408V135H665.8v-16.128h16.704V75.96zM763 119.592c3.072 0 5.496-.984 7.272-2.952 1.776-1.968 2.664-4.344 2.664-7.128s-.888-5.16-2.664-7.128c-1.776-1.968-4.2-2.952-7.272-2.952s-5.496.984-7.272 2.952c-1.776 1.968-2.664 4.344-2.664 7.128s.888 5.16 2.664 7.128c1.776 1.968 4.2 2.952 7.272 2.952zm0-34.272c1.632 0 3.048-.504 4.248-1.512 1.2-1.008 1.8-2.376 1.8-4.104 0-1.728-.6-3.096-1.8-4.104-1.2-1.008-2.616-1.512-4.248-1.512-1.632 0-3.048.504-4.248 1.512-1.2 1.008-1.8 2.376-1.8 4.104 0 1.728.6 3.096 1.8 4.104 1.2 1.008 2.616 1.512 4.248 1.512zm-15.84 5.616c-2.208-1.344-4.104-3.096-5.688-5.256-1.584-2.16-2.376-4.92-2.376-8.28 0-2.784.648-5.328 1.944-7.632 1.296-2.304 3.024-4.296 5.184-5.976 2.16-1.68 4.704-2.976 7.632-3.888 2.928-.912 5.976-1.368 9.144-1.368s6.192.456 9.072 1.368c2.88.912 5.4 2.208 7.56 3.888 2.16 1.68 3.888 3.672 5.184 5.976 1.296 2.304 1.944 4.848 1.944 7.632 0 3.36-.768 6.12-2.304 8.28-1.536 2.16-3.408 3.912-5.616 5.256 4.032 1.632 7.416 4.032 10.152 7.2 2.736 3.168 4.104 7.296 4.104 12.384 0 3.744-.72 7.176-2.16 10.296-1.44 3.12-3.456 5.832-6.048 8.136-2.592 2.304-5.736 4.104-9.432 5.4-3.696 1.296-7.848 1.944-12.456 1.944s-8.76-.648-12.456-1.944c-3.696-1.296-6.84-3.096-9.432-5.4-2.592-2.304-4.584-5.016-5.976-8.136-1.392-3.12-2.088-6.552-2.088-10.296 0-5.088 1.344-9.216 4.032-12.384 2.688-3.168 6.048-5.568 10.08-7.2z" stroke="#F8E81C" stroke-width="4" fill="none"/></g></svg>