<svg width="560" height="120" viewBox="0 0 560 120" version="1.1" xmlns="http://www.w3.org/2000/svg" xmlns:xlink="http://www.w3.org/1999/xlink">
<title>volunteer-logo</title>
<desc>Created using Figma</desc>
<g id="Canvas" transform="translate(350 1270)">
<g id="volunteer-logo">
<g id="Group">
<g id="Vector">
<use xlink:href="#path0_fill" transform="translate(-350 -1270)" fill="#DD4B39"/>
</g>
<g id="RE">
<use xlink:href="#path1_fill" transform="translate(-320.31 -1207.9)" fill="#FFFFFF"/>
<use xlink:href="#path2_fill" transform="translate(-320.31 -1207.9)" fill="#FFFFFF"/>
</g>
</g>
<g id="VOLUNTEER">
<use xlink:href="#path3_fill" transform="translate(-225 -1208)"/>
<use xlink:href="#path4_fill" transform="translate(-225 -1208)"/>
<use xlink:href="#path5_fill" transform="translate(-225 -1208)"/>
<use xlink:href="#path6_fill" transform="translate(-225 -1208)"/>
<use xlink:href="#path7_fill" transform="translate(-225 -1208)"/>
<use xlink:href="#path8_fill" transform="translate(-225 -1208)"/>
<use xlink:href="#path9_fill" transform="translate(-225 -1208)"/>
<use xlink:href="#path10_fill" transform="translate(-225 -1208)"/>
<use xlink:href="#path11_fill" transform="translate(-225 -1208)"/>
</g>
</g>
</g>
<defs>
<path id="path0_fill" d="M 120 0L 0 0L 0 120L 120 120L 120 0Z"/>
<path id="path1_fill" d="M 20.502 34.438L 13.266 34.438L 13.266 46.9L 0 46.9L 0 0L 21.44 0C 25.6833 0 29.3683 0.714666 32.495 2.144C 35.6217 3.52867 38.0337 5.53867 39.731 8.174C 41.4283 10.7647 42.277 13.8243 42.277 17.353C 42.277 20.7477 41.473 23.718 39.865 26.264C 38.3017 28.7653 36.046 30.7307 33.098 32.16L 43.215 46.9L 29.011 46.9L 20.502 34.438ZM 28.877 17.353C 28.877 15.1643 28.1847 13.467 26.8 12.261C 25.4153 11.055 23.3607 10.452 20.636 10.452L 13.266 10.452L 13.266 24.187L 20.636 24.187C 23.3607 24.187 25.4153 23.6063 26.8 22.445C 28.1847 21.239 28.877 19.5417 28.877 17.353Z"/>
<path id="path2_fill" d="M 83.8997 36.649L 83.8997 46.9L 46.2457 46.9L 46.2457 0L 83.0287 0L 83.0287 10.251L 59.3777 10.251L 59.3777 18.157L 80.2147 18.157L 80.2147 28.073L 59.3777 28.073L 59.3777 36.649L 83.8997 36.649Z"/>
<path id="path3_fill" d="M 53.198 0.938L 33.098 47.838L 20.033 47.838L 0 0.938L 14.338 0.938L 27.068 31.49L 40.066 0.938L 53.198 0.938Z"/>
<path id="path4_fill" d="M 78.9401 48.776C 73.9821 48.776 69.5155 47.7263 65.5401 45.627C 61.6095 43.5277 58.5051 40.6243 56.2271 36.917C 53.9938 33.2097 52.8771 29.0333 52.8771 24.388C 52.8771 19.7427 53.9938 15.5663 56.2271 11.859C 58.5051 8.15167 61.6095 5.24833 65.5401 3.149C 69.5155 1.04967 73.9821 0 78.9401 0C 83.8981 0 88.3425 1.04967 92.2731 3.149C 96.2485 5.24833 99.3528 8.15167 101.586 11.859C 103.864 15.5663 105.003 19.7427 105.003 24.388C 105.003 29.0333 103.864 33.2097 101.586 36.917C 99.3528 40.6243 96.2485 43.5277 92.2731 45.627C 88.3425 47.7263 83.8981 48.776 78.9401 48.776ZM 78.9401 37.788C 81.3075 37.788 83.4515 37.2297 85.3721 36.113C 87.2928 34.9963 88.8115 33.433 89.9281 31.423C 91.0448 29.3683 91.6031 27.0233 91.6031 24.388C 91.6031 21.7527 91.0448 19.43 89.9281 17.42C 88.8115 15.3653 87.2928 13.7797 85.3721 12.663C 83.4515 11.5463 81.3075 10.988 78.9401 10.988C 76.5728 10.988 74.4288 11.5463 72.5081 12.663C 70.5875 13.7797 69.0688 15.3653 67.9521 17.42C 66.8355 19.43 66.2771 21.7527 66.2771 24.388C 66.2771 27.0233 66.8355 29.3683 67.9521 31.423C 69.0688 33.433 70.5875 34.9963 72.5081 36.113C 74.4288 37.2297 76.5728 37.788 78.9401 37.788Z"/>
<path id="path5_fill" d="M 111.951 0.938L 125.217 0.938L 125.217 37.319L 147.595 37.319L 147.595 47.838L 111.951 47.838L 111.951 0.938Z"/>
<path id="path6_fill" d="M 174.028 48.776C 167.06 48.776 161.633 46.8777 157.747 43.081C 153.905 39.2843 151.985 33.902 151.985 26.934L 151.985 0.938L 165.251 0.938L 165.251 26.532C 165.251 34.036 168.221 37.788 174.162 37.788C 180.058 37.788 183.006 34.036 183.006 26.532L 183.006 0.938L 196.071 0.938L 196.071 26.934C 196.071 33.902 194.128 39.2843 190.242 43.081C 186.4 46.8777 180.996 48.776 174.028 48.776Z"/>
<path id="path7_fill" d="M 249.68 0.938L 249.68 47.838L 238.759 47.838L 218.056 22.847L 218.056 47.838L 205.058 47.838L 205.058 0.938L 215.979 0.938L 236.682 25.929L 236.682 0.938L 249.68 0.938Z"/>
<path id="path8_fill" d="M 269.02 11.457L 254.615 11.457L 254.615 0.938L 296.624 0.938L 296.624 11.457L 282.286 11.457L 282.286 47.838L 269.02 47.838L 269.02 11.457Z"/>
<path id="path9_fill" d="M 339.22 37.587L 339.22 47.838L 301.566 47.838L 301.566 0.938L 338.349 0.938L 338.349 11.189L 314.698 11.189L 314.698 19.095L 335.535 19.095L 335.535 29.011L 314.698 29.011L 314.698 37.587L 339.22 37.587Z"/>
<path id="path10_fill" d="M 384.236 37.587L 384.236 47.838L 346.582 47.838L 346.582 0.938L 383.365 0.938L 383.365 11.189L 359.714 11.189L 359.714 19.095L 380.551 19.095L 380.551 29.011L 359.714 29.011L 359.714 37.587L 384.236 37.587Z"/>
<path id="path11_fill" d="M 412.1 35.376L 404.864 35.376L 404.864 47.838L 391.598 47.838L 391.598 0.938L 413.038 0.938C 417.281 0.938 420.966 1.65267 424.093 3.082C 427.219 4.46667 429.631 6.47667 431.329 9.112C 433.026 11.7027 433.875 14.7623 433.875 18.291C 433.875 21.6857 433.071 24.656 431.463 27.202C 429.899 29.7033 427.644 31.6687 424.696 33.098L 434.813 47.838L 420.609 47.838L 412.1 35.376ZM 420.475 18.291C 420.475 16.1023 419.782 14.405 418.398 13.199C 417.013 11.993 414.958 11.39 412.234 11.39L 404.864 11.39L 404.864 25.125L 412.234 25.125C 414.958 25.125 417.013 24.5443 418.398 23.383C 419.782 22.177 420.475 20.4797 420.475 18.291Z"/>
</defs>
</svg>
